<?xml version="1.0" standalone="no"?><!DOCTYPE svg PUBLIC "-//W3C//DTD SVG 1.1//EN" "http://www.w3.org/Graphics/SVG/1.1/DTD/svg11.dtd"><svg t="1749033424843" class="icon" viewBox="0 0 1365 1024" version="1.1" xmlns="http://www.w3.org/2000/svg" p-id="5314" width="341.25" height="256" xmlns:xlink="http://www.w3.org/1999/xlink"><path d="M153.6 102.4C106.496 102.4 68.266667 131.7888 68.266667 168.0384v756.189867c0 36.2496 4.096 31.505067 51.2 31.505066h1058.133333c47.104 0 85.333333-29.3888 85.333333-65.6384V168.0384C1262.933333 131.7888 1224.704 102.4 1177.6 102.4h-1024z" fill="#E6F2FE" p-id="5315"></path><path d="M119.466667 955.733333H477.866667a34.133333 34.133333 0 0 1 0 68.266667H102.4a102.4 102.4 0 0 1-102.4-102.4v-162.133333a34.133333 34.133333 0 0 1 68.266667 0v145.066666A51.2 51.2 0 0 0 119.466667 955.733333zM0 102.4v162.133333a34.133333 34.133333 0 1 0 68.266667 0V110.114133a51.2 51.2 0 0 1 52.4288-51.2L477.866667 67.4816A33.314133 33.314133 0 0 0 512 34.133333a34.133333 34.133333 0 0 0-34.133333-34.133333H102.4a102.4 102.4 0 0 0-102.4 102.4z m1245.866667 853.333333H887.466667a34.133333 34.133333 0 0 0 0 68.266667h375.466666a102.4 102.4 0 0 0 102.4-102.4v-162.133333a34.133333 34.133333 0 0 0-68.266666 0v145.066666a51.2 51.2 0 0 1-51.2 51.2zM853.333333 34.133333a34.133333 34.133333 0 0 0 34.133334 34.133334h358.4A51.2 51.2 0 0 1 1297.066667 119.466667v145.066666a34.133333 34.133333 0 0 0 68.266666 0V102.4a102.4 102.4 0 0 0-102.4-102.4H887.466667a34.133333 34.133333 0 0 0-34.133334 34.133333zM347.613867 711.4752c-103.867733 0-176.5376-80.7936-176.5376-196.4032 0-119.330133 74.6496-202.5472 181.589333-202.5472 104.004267 0 176.5376 80.554667 176.5376 195.8912 0 140.253867-91.204267 203.0592-181.589333 203.0592z m-86.289067-197.461333c0 56.5248 27.7504 118.3744 88.814933 118.3744s89.326933-61.3376 89.326934-121.992534c0-57.207467-27.7504-118.920533-88.814934-118.920533-65.877333 0-89.326933 65.979733-89.326933 122.538667z m593.237333 93.457066l-23.3472 11.332267c-15.36 7.4752-40.1408 12.117333-63.488 12.117333-70.656 0-111.342933-42.8032-111.342933-117.4528 0-74.683733 42.427733-121.070933 113.322667-121.070933 30.72 0 50.961067 7.611733 60.416 12.288l22.664533 10.922667 7.202133-24.132267 10.820267-36.420267 4.9152-16.7936-15.701333-7.9872c-10.308267-5.3248-39.765333-17.749333-91.886934-17.749333-118.6816 0-201.591467 83.3536-201.591466 202.5472s75.332267 195.9936 191.829333 195.9936c39.594667 0 77.346133-6.929067 100.693333-18.670933l15.4624-7.714134-4.266666-16.6912-9.216-35.328-6.485334-25.1904z m259.822934 98.542934l-6.144-10.683734c-6.382933-11.0592-13.312-35.054933-25.429334-88.6784-9.079467-41.984-21.879467-49.186133-48.264533-50.244266h-20.6848v149.469866h-87.210667V326.656l17.066667-3.447467c23.3472-4.778667 56.832-7.611733 89.770667-7.611733 53.179733 0 88.405333 10.410667 114.005333 33.450667 22.1184 19.626667 34.372267 48.5376 34.372267 81.6128 0 37.4784-16.930133 70.007467-45.8752 91.067733 14.404267 15.086933 24.6784 36.283733 30.958933 63.351467 7.5776 32.529067 17.988267 77.175467 24.644267 89.429333l16.930133 31.505067h-94.139733z m-100.352-312.4224v86.528h24.234666c35.328 0 56.5248-16.520533 56.5248-44.2368-0.136533-11.741867-0.136533-42.666667-58.129066-43.349334a310.749867 310.749867 0 0 0-22.664534 1.058134z" fill="#037DF3" p-id="5316"></path></svg>